<?xml version="1.0" encoding="utf-8"?>
<svg viewBox="108.086 52.536 120.65 58.933" xmlns="http://www.w3.org/2000/svg">
  <g>
    <path d="M 111.004 100.505 Q 112.327 100.946 113.626 100.946 Q 114.924 100.946 116.345 100.407 Q 117.766 99.868 118.942 98.716 Q 120.118 97.565 120.878 95.262 Q 121.637 92.959 121.637 89.823 L 121.637 63.167 Q 121.588 61.893 120.682 60.987 Q 119.775 60.08 118.501 60.08 L 117.864 60.08 L 117.864 59.59 L 128.595 59.59 L 128.595 60.08 L 127.958 60.08 Q 126.684 60.08 125.778 60.962 Q 124.871 61.844 124.822 63.167 L 124.822 89.97 Q 124.822 93.302 123.793 95.801 Q 122.764 98.3 121.196 99.574 Q 118.256 101.877 114.679 101.877 Q 112.572 101.877 110.808 101.044 Z M 165.585 93.4 L 165.977 93.4 L 165.977 93.89 L 154.952 93.89 L 154.952 93.4 L 155.393 93.4 Q 156.422 93.4 156.936 92.738 Q 157.451 92.077 157.451 91.489 Q 157.451 90.901 157.255 90.313 L 154.119 81.983 L 140.889 81.983 L 137.606 90.362 Q 137.41 90.95 137.41 91.513 Q 137.41 92.077 137.924 92.738 Q 138.439 93.4 139.468 93.4 L 139.909 93.4 L 139.909 93.89 L 130.06 93.89 L 130.06 93.4 L 130.501 93.4 Q 131.726 93.4 132.902 92.616 Q 134.078 91.832 134.813 90.313 L 145.887 63.951 Q 147.7 59.982 147.7 58.904 L 148.141 58.904 L 161.273 90.313 Q 161.959 91.832 163.135 92.616 Q 164.311 93.4 165.585 93.4 Z M 141.477 80.513 L 153.531 80.513 L 147.651 64.784 Z M 193.464 60.08 L 192.778 60.08 Q 191.308 60.08 190.009 60.889 Q 188.711 61.697 187.829 62.922 L 178.176 78.602 L 178.176 90.313 Q 178.176 91.587 179.082 92.493 Q 179.989 93.4 181.312 93.4 L 181.9 93.4 L 181.9 93.89 L 171.218 93.89 L 171.218 93.4 L 171.855 93.4 Q 173.129 93.4 174.035 92.518 Q 174.942 91.636 174.991 90.362 L 174.991 78.553 L 165.632 62.922 Q 164.897 61.746 163.549 60.913 Q 162.202 60.08 160.732 60.08 L 160.046 60.08 L 160.046 59.59 L 172.1 59.59 L 172.1 60.08 L 171.463 60.08 Q 170.385 60.08 169.797 61.06 Q 169.503 61.599 169.503 62.114 Q 169.503 62.628 169.748 63.118 L 177.098 76.838 L 184.938 63.069 Q 185.183 62.579 185.183 62.089 Q 185.183 61.599 184.84 61.06 Q 184.252 60.08 183.174 60.08 L 182.586 60.08 L 182.586 59.59 L 193.464 59.59 Z M 196.597 69.145 Q 197.479 64.98 197.479 63.045 Q 197.479 61.109 197.381 59.59 L 200.811 58.904 Q 200.811 59.149 200.811 59.933 Q 200.811 60.717 200.541 62.506 Q 200.272 64.294 199.365 66.45 Q 198.459 68.606 197.038 69.39 Z M 206.199 91.881 Q 206.052 91.195 206.052 89.235 Q 206.052 87.275 206.787 85.07 L 207.228 85.07 Q 207.179 85.609 207.179 86.148 Q 207.179 89.137 208.992 91.121 Q 210.805 93.106 213.794 93.106 Q 216.881 93.106 218.866 91.244 Q 220.85 89.382 220.85 86.564 Q 220.85 83.747 218.939 81.983 L 209.531 73.261 Q 206.885 70.811 206.885 67.332 Q 206.885 63.853 209.213 61.379 Q 211.54 58.904 215.509 58.904 Q 217.371 58.904 219.723 59.394 L 221.634 59.394 L 221.634 65.421 L 221.193 65.421 Q 221.193 63.118 219.601 61.746 Q 218.008 60.374 215.509 60.374 Q 213.01 60.374 211.32 62.04 Q 209.629 63.706 209.629 66.205 Q 209.629 68.704 211.589 70.517 L 221.242 79.435 Q 223.692 81.689 223.692 85.609 Q 223.692 89.529 221.193 92.052 Q 218.694 94.576 214.529 94.576 Q 212.373 94.576 209.948 93.914 Q 207.522 93.253 206.199 91.881 Z" style="fill: rgb(51, 51, 51);"/>
    <path d="M 129.609 106.602 L 129.609 98.354 L 132.618 98.354 Q 133.361 98.354 133.963 98.631 Q 134.565 98.908 134.919 99.457 Q 135.273 100.006 135.273 100.82 Q 135.273 101.634 134.919 102.183 Q 134.565 102.732 133.963 103.009 Q 133.361 103.286 132.618 103.286 L 130.683 103.286 L 130.683 106.602 Z M 130.683 102.354 L 132.476 102.354 Q 133.267 102.354 133.709 101.941 Q 134.152 101.528 134.152 100.82 Q 134.152 100.112 133.709 99.699 Q 133.267 99.286 132.476 99.286 L 130.683 99.286 Z M 141.618 106.602 L 140.887 104.136 L 138.043 104.136 L 137.311 106.602 L 136.178 106.602 L 138.786 98.354 L 140.167 98.354 L 142.763 106.602 Z M 138.314 103.215 L 140.615 103.215 L 139.459 99.345 Z M 149.628 100.737 L 148.566 100.737 Q 148.542 100.029 148.117 99.563 Q 147.692 99.097 146.831 99.097 Q 145.981 99.097 145.539 99.475 Q 145.096 99.852 145.096 100.407 Q 145.096 101.398 146.217 101.658 L 147.905 102.047 Q 148.872 102.271 149.368 102.861 Q 149.864 103.451 149.864 104.254 Q 149.864 105.068 149.492 105.64 Q 149.12 106.213 148.465 106.514 Q 147.81 106.814 146.937 106.814 Q 145.403 106.814 144.595 106.053 Q 143.787 105.292 143.763 103.971 L 144.825 103.971 Q 144.837 104.797 145.38 105.316 Q 145.922 105.835 146.961 105.835 Q 147.893 105.835 148.324 105.434 Q 148.754 105.033 148.754 104.407 Q 148.754 103.853 148.453 103.534 Q 148.153 103.215 147.539 103.074 L 145.828 102.673 Q 144.931 102.46 144.459 101.912 Q 143.987 101.363 143.987 100.513 Q 143.987 99.817 144.341 99.292 Q 144.695 98.767 145.338 98.466 Q 145.981 98.165 146.866 98.165 Q 147.728 98.165 148.347 98.484 Q 148.967 98.802 149.297 99.351 Q 149.628 99.9 149.628 100.584 Z M 156.917 100.737 L 155.855 100.737 Q 155.831 100.029 155.407 99.563 Q 154.982 99.097 154.12 99.097 Q 153.271 99.097 152.828 99.475 Q 152.386 99.852 152.386 100.407 Q 152.386 101.398 153.507 101.658 L 155.194 102.047 Q 156.162 102.271 156.657 102.861 Q 157.153 103.451 157.153 104.254 Q 157.153 105.068 156.781 105.64 Q 156.41 106.213 155.755 106.514 Q 155.1 106.814 154.227 106.814 Q 152.693 106.814 151.884 106.053 Q 151.076 105.292 151.052 103.971 L 152.114 103.971 Q 152.126 104.797 152.669 105.316 Q 153.212 105.835 154.25 105.835 Q 155.182 105.835 155.613 105.434 Q 156.044 105.033 156.044 104.407 Q 156.044 103.853 155.743 103.534 Q 155.442 103.215 154.828 103.074 L 153.117 102.673 Q 152.221 102.46 151.749 101.912 Q 151.277 101.363 151.277 100.513 Q 151.277 99.817 151.631 99.292 Q 151.985 98.767 152.628 98.466 Q 153.271 98.165 154.156 98.165 Q 155.017 98.165 155.637 98.484 Q 156.256 98.802 156.587 99.351 Q 156.917 99.9 156.917 100.584 Z M 164.714 98.354 L 163.546 106.602 L 162.354 106.602 L 161.339 99.286 L 161.327 99.286 L 160.324 106.602 L 159.133 106.602 L 157.964 98.354 L 158.979 98.354 L 159.782 104.926 L 159.793 104.926 L 160.643 98.354 L 162.047 98.354 L 162.897 105.033 L 162.909 105.033 L 163.758 98.354 Z M 168.629 98.165 Q 170.151 98.165 170.994 99.304 Q 171.838 100.442 171.838 102.496 Q 171.838 104.549 170.994 105.682 Q 170.151 106.814 168.629 106.814 Q 167.106 106.814 166.263 105.682 Q 165.419 104.549 165.419 102.496 Q 165.419 100.442 166.263 99.304 Q 167.106 98.165 168.629 98.165 Z M 168.629 99.133 Q 167.661 99.133 167.112 100.024 Q 166.564 100.914 166.564 102.496 Q 166.564 104.065 167.112 104.956 Q 167.661 105.847 168.629 105.847 Q 169.608 105.847 170.151 104.956 Q 170.694 104.065 170.694 102.496 Q 170.694 100.914 170.151 100.024 Q 169.608 99.133 168.629 99.133 Z M 176.237 103.215 L 174.455 103.215 L 174.455 106.602 L 173.381 106.602 L 173.381 98.354 L 176.272 98.354 Q 177.464 98.354 178.184 98.908 Q 178.903 99.463 178.903 100.608 Q 178.903 101.327 178.585 101.817 Q 178.266 102.307 177.535 102.673 Q 177.971 102.85 178.207 103.062 Q 178.443 103.274 178.549 103.634 Q 178.656 103.994 178.691 104.596 L 178.726 105.21 Q 178.75 105.505 178.821 105.823 Q 178.892 106.142 179.151 106.331 L 179.151 106.602 L 177.936 106.602 Q 177.806 106.331 177.718 105.977 Q 177.629 105.623 177.629 105.221 L 177.629 104.702 Q 177.629 103.971 177.299 103.593 Q 176.968 103.215 176.237 103.215 Z M 174.455 99.286 L 174.455 102.283 L 176.06 102.283 Q 176.862 102.283 177.322 101.935 Q 177.782 101.587 177.782 100.726 Q 177.782 99.97 177.328 99.628 Q 176.874 99.286 176.06 99.286 Z M 183.125 106.602 L 180.458 106.602 L 180.458 98.354 L 183.125 98.354 Q 184.175 98.354 184.871 98.885 Q 185.568 99.416 185.916 100.342 Q 186.264 101.268 186.264 102.472 Q 186.264 103.676 185.916 104.608 Q 185.568 105.54 184.871 106.071 Q 184.175 106.602 183.125 106.602 Z M 181.556 99.321 L 181.556 105.634 L 182.936 105.634 Q 184.093 105.634 184.606 104.791 Q 185.119 103.947 185.119 102.484 Q 185.119 101.009 184.606 100.165 Q 184.093 99.321 182.936 99.321 Z M 197.704 106.602 L 195.037 106.602 L 195.037 98.354 L 197.704 98.354 Q 198.754 98.354 199.45 98.885 Q 200.146 99.416 200.495 100.342 Q 200.843 101.268 200.843 102.472 Q 200.843 103.676 200.495 104.608 Q 200.146 105.54 199.45 106.071 Q 198.754 106.602 197.704 106.602 Z M 196.134 99.321 L 196.134 105.634 L 197.515 105.634 Q 198.671 105.634 199.185 104.791 Q 199.698 103.947 199.698 102.484 Q 199.698 101.009 199.185 100.165 Q 198.671 99.321 197.515 99.321 Z M 207.401 102.861 L 203.861 102.861 L 203.861 105.634 L 207.79 105.634 L 207.79 106.602 L 202.763 106.602 L 202.763 98.354 L 207.578 98.354 L 207.578 99.321 L 203.861 99.321 L 203.861 101.894 L 207.401 101.894 Z M 211.917 104.242 L 210.407 100.077 L 210.407 106.602 L 209.474 106.602 L 209.474 98.354 L 210.702 98.354 L 212.377 103.097 L 214.053 98.354 L 215.256 98.354 L 215.256 106.602 L 214.324 106.602 L 214.324 100.065 L 212.837 104.242 Z M 219.655 98.165 Q 221.177 98.165 222.021 99.304 Q 222.864 100.442 222.864 102.496 Q 222.864 104.549 222.021 105.682 Q 221.177 106.814 219.655 106.814 Q 218.133 106.814 217.289 105.682 Q 216.445 104.549 216.445 102.496 Q 216.445 100.442 217.289 99.304 Q 218.133 98.165 219.655 98.165 Z M 219.655 99.133 Q 218.687 99.133 218.139 100.024 Q 217.59 100.914 217.59 102.496 Q 217.59 104.065 218.139 104.956 Q 218.687 105.847 219.655 105.847 Q 220.634 105.847 221.177 104.956 Q 221.72 104.065 221.72 102.496 Q 221.72 100.914 221.177 100.024 Q 220.634 99.133 219.655 99.133 Z" style="fill: rgb(51, 51, 51);"/>
  </g>
</svg>